<svg xmlns="http://www.w3.org/2000/svg" viewBox="0 0 32 32"><path fill="#f15743" d="M17 21.5h-2a.5.5 0 0 1 0-1h2a.5.5 0 0 1 0 1zm-14-4a.5.5 0 0 1-.416-.777l1-1.5a.507.507 0 0 1 .219-.183l3.342-1.433a.501.501 0 0 1 .394.92l-3.205 1.374-.918 1.376A.5.5 0 0 1 3 17.5zm25.479-3c-.876 0-1.684-.295-2.272-.831-1.068-.973-1.467-2.405-1.04-3.738a.501.501 0 0 1 .953.305c-.307.956-.015 1.988.761 2.693.404.369.972.571 1.6.571h.009l.027 1h-.038z"/><path fill="#2c4355" d="M7.5 24.5c-2.206 0-4-1.794-4-4s1.794-4 4-4 4 1.794 4 4-1.794 4-4 4zm0-7c-1.654 0-3 1.346-3 3s1.346 3 3 3 3-1.346 3-3-1.346-3-3-3z"/><path fill="#2c4355" d="M7.5 22c-.827 0-1.5-.673-1.5-1.5S6.673 19 7.5 19s1.5.673 1.5 1.5S8.327 22 7.5 22zm0-2c-.275 0-.5.225-.5.5s.225.5.5.5.5-.225.5-.5-.225-.5-.5-.5zm18 4.5c-2.206 0-4-1.794-4-4s1.794-4 4-4 4 1.794 4 4-1.794 4-4 4zm0-7c-1.654 0-3 1.346-3 3s1.346 3 3 3 3-1.346 3-3-1.346-3-3-3zm-10-2.5a.5.5 0 0 1-.5-.5c0-2.206 2.468-4 5.5-4 .974 0 1.928.186 2.76.535a.5.5 0 1 1-.386.922A6.183 6.183 0 0 0 20.5 11.5c-2.481 0-4.5 1.346-4.5 3a.5.5 0 0 1-.5.5z"/><path fill="#2c4355" d="M25.5 22c-.827 0-1.5-.673-1.5-1.5s.673-1.5 1.5-1.5 1.5.673 1.5 1.5-.673 1.5-1.5 1.5zm0-2c-.275 0-.5.225-.5.5s.225.5.5.5.5-.225.5-.5-.225-.5-.5-.5zm-10-5.5H11a.5.5 0 0 1-.4-.2l-1.35-1.8H4a.5.5 0 0 1 0-1h5.5a.5.5 0 0 1 .4.2l1.35 1.8h4.25a.5.5 0 0 1 0 1zm-7.412 5.692a.5.5 0 0 1-.285-.911l3.626-2.513a.5.5 0 0 1 .57.822l-3.626 2.513a.5.5 0 0 1-.285.089z"/><path fill="#2c4355" d="M8.499 21a.5.5 0 0 1-.101-.989l4.346-.91a.499.499 0 0 1 .592.387.5.5 0 0 1-.387.592l-4.346.91a.53.53 0 0 1-.104.01zM25.5 20a.5.5 0 0 1-.483-.372l-.693-2.625a.5.5 0 0 1 .966-.256l.693 2.625A.5.5 0 0 1 25.5 20zm-1 .5a.499.499 0 0 1-.427-.24l-1.3-2.137a.5.5 0 1 1 .854-.52l1.3 2.137a.5.5 0 0 1-.427.76z"/><path fill="#2c4355" d="M21.019 23.5h-7.044c-.827 0-1.5-.673-1.5-1.5v-1.185c0-1.756-.86-3.404-2.301-4.408l-6.437-3.982a.499.499 0 1 1 .526-.85l6.46 3.997a6.387 6.387 0 0 1 2.752 5.243V22c0 .275.225.5.5.5H20.5c0-.43.039-.863.116-1.295.521-2.897 2.928-5.213 5.853-5.631a7.159 7.159 0 0 1 1.961-.014 7.672 7.672 0 0 0-4.773-5.983l-1.488-.583 1.328 2.25a.5.5 0 1 1-.862.508L20.57 8.254a.5.5 0 0 1 .613-.72l2.839 1.111a8.672 8.672 0 0 1 5.475 7.495.501.501 0 0 1-.615.518 6.052 6.052 0 0 0-2.271-.095c-2.504.357-4.563 2.339-5.01 4.817a6.236 6.236 0 0 0-.083 1.58.505.505 0 0 1-.499.54z"/></svg>