<svg xmlns="http://www.w3.org/2000/svg" data-name="Layer 1" viewBox="0 0 512 512"><path d="M91 307.71a30 30 0 1 0 30 30 30.034 30.034 0 0 0-30-30Zm0 45a15 15 0 1 1 15-15 15.017 15.017 0 0 1-15 15Zm421-132.5v-18a18.52 18.52 0 0 0-18.5-18.5h-36.168a18.487 18.487 0 0 0-15.788 8.907l-25.72-66.869a37.75 37.75 0 0 0-31.957-23.906v-4.748a7.5 7.5 0 0 0-15 0v4.616H150.429v-4.616a7.5 7.5 0 1 0-15 0v4.616h-4.253a37.724 37.724 0 0 0-35 24.038l-25.72 66.869a18.487 18.487 0 0 0-15.788-8.907H18.5A18.52 18.52 0 0 0 0 202.21v18a18.52 18.52 0 0 0 18.5 18.5h26A76.846 76.846 0 0 0 30 283.717V409.21a37.512 37.512 0 0 0 18.5 32.311v49.476a20.918 20.918 0 0 0 .885 6.003H7.5a7.5 7.5 0 0 0 0 15h497a7.5 7.5 0 0 0 0-15h-41.885a20.918 20.918 0 0 0 .885-6.003V441.52A37.512 37.512 0 0 0 482 409.21V283.717a76.845 76.845 0 0 0-14.5-45.007h26a18.52 18.52 0 0 0 18.5-18.5Zm-493.5 3.5a3.504 3.504 0 0 1-3.5-3.5v-18a3.504 3.504 0 0 1 3.5-3.5h36.168a3.504 3.504 0 0 1 3.5 3.5v18a3.504 3.504 0 0 1-3.5 3.5Zm100 267.287a6.01 6.01 0 0 1-6.003 6.003H69.503a6.01 6.01 0 0 1-6.003-6.003v-44.503a37.734 37.734 0 0 0 4 .216h51ZM132.615 497a20.918 20.918 0 0 0 .885-6.003V446.71h245v44.287a20.918 20.918 0 0 0 .885 6.003Zm8.99-65.29 18.252-15.818a33.493 33.493 0 0 1 21.933-8.182h147.42a33.493 33.493 0 0 1 21.933 8.182l18.252 15.818ZM448.5 490.997a6.01 6.01 0 0 1-6.003 6.003h-42.994a6.01 6.01 0 0 1-6.003-6.003V446.71h51a37.734 37.734 0 0 0 4-.216ZM467 409.21a22.525 22.525 0 0 1-22.5 22.5h-52.202l-31.331-27.153a48.492 48.492 0 0 0-31.757-11.847H181.79a48.492 48.492 0 0 0-31.757 11.847l-31.33 27.153H67.5a22.525 22.525 0 0 1-22.5-22.5V283.717a61.948 61.948 0 0 1 16.771-42.468 76.803 76.803 0 0 0 15.675-25.02l32.73-85.096a22.635 22.635 0 0 1 21-14.423h249.648a22.635 22.635 0 0 1 21 14.423l32.73 85.096a76.81 76.81 0 0 0 15.675 25.02A61.946 61.946 0 0 1 467 283.717Zm-9.668-185.5a3.504 3.504 0 0 1-3.5-3.5v-18a3.504 3.504 0 0 1 3.5-3.5H493.5a3.504 3.504 0 0 1 3.5 3.5v18a3.504 3.504 0 0 1-3.5 3.5Zm-105.877 84h-190.91a15.5 15.5 0 0 0-12.612 24.51l18.57 26a15.531 15.531 0 0 0 12.614 6.49h153.766a15.531 15.531 0 0 0 12.613-6.49l18.571-26a15.5 15.5 0 0 0-12.612-24.51Zm.406 15.79-18.571 26a.5.5 0 0 1-.407.21H179.117a.5.5 0 0 1-.407-.21l-18.571-26a.5.5 0 0 1 .406-.79h190.91a.5.5 0 0 1 .406.79ZM91 253.427h330a7.5 7.5 0 0 0 6.994-10.207l-40.871-105.58a7.5 7.5 0 0 0-6.995-4.793H131.872a7.5 7.5 0 0 0-6.995 4.793l-40.871 105.58A7.5 7.5 0 0 0 91 253.426Zm46.01-105.58h237.98l35.064 90.58H101.946ZM421 307.71a30 30 0 1 0 30 30 30.034 30.034 0 0 0-30-30Zm0 45a15 15 0 1 1 15-15 15.017 15.017 0 0 1-15 15Z"/></svg>