<svg xmlns="http://www.w3.org/2000/svg" data-name="Layer 1" viewBox="0 0 512 512"><path d="M480.974,222.542c-.164-.059-.381-.111-.549-.158L439.134,211,411.6,151.879a37.822,37.822,0,0,0-33.542-21.731L193.9,127.226c-.185,0-.369,0-.553,0a37.56,37.56,0,0,0-30.845,16.1l-46.9,67.275-63.912,13.03A57.272,57.272,0,0,0,6,279.459v55.875C6,339.2,9.335,342,13.2,342H48.05c5.092,25,26.611,42.445,52.313,42.445S147.584,367,152.676,342H363.789A52.911,52.911,0,0,0,416.1,384.612a53.585,53.585,0,0,0,52.415-42.368A37.659,37.659,0,0,0,506,304.728V257.945A37.782,37.782,0,0,0,480.974,222.542ZM398.9,157.788l24.253,52.1H333V143.435l44.839.712A23.737,23.737,0,0,1,398.9,157.788ZM243,210V142.006l76,1.207V210Zm-69.012-58.674a23.6,23.6,0,0,1,19.7-10.1l35.313.56v68.108H133.156ZM100.363,370.779a39.461,39.461,0,1,1,39.46-39.461A39.5,39.5,0,0,1,100.363,370.779Zm315.739,0a39.461,39.461,0,1,1,39.46-39.461A39.505,39.505,0,0,1,416.1,370.779ZM492,304.728A23.721,23.721,0,0,1,469.572,328.3,53.508,53.508,0,0,0,362.73,328H153.735a53.455,53.455,0,0,0-106.744,0H20V279.459A43.226,43.226,0,0,1,54.489,237.34l65.91-13.447,312.756,0,43.316,11.917A23.764,23.764,0,0,1,492,257.945Z"/></svg>