<svg xmlns="http://www.w3.org/2000/svg" fill-rule="evenodd" stroke-linejoin="round" stroke-miterlimit="2" clip-rule="evenodd" viewBox="0 0 32 32"><g transform="scale(.21157 .17778)"><path fill="none" d="M0 0h151.25v180H0z"/><clipPath id="a"><path d="M0 0h151.25v180H0z"/></clipPath><g clip-path="url(#a)"><path d="M40.175 73.125c-13.045 0-23.632 12.6-23.632 28.125s10.587 28.125 23.632 28.125c13.046 0 23.633-12.6 23.633-28.125S53.221 73.125 40.175 73.125Zm0 11.25c7.828 0 14.18 7.56 14.18 16.875 0 9.315-6.352 16.875-14.18 16.875-7.827 0-14.18-7.56-14.18-16.875 0-9.315 6.353-16.875 14.18-16.875ZM111.073 0C98.028 0 87.441 12.6 87.441 28.125S98.028 56.25 111.073 56.25c13.046 0 23.633-12.6 23.633-28.125S124.12 0 111.073 0Zm0 11.25c7.828 0 14.18 7.56 14.18 16.875 0 9.315-6.352 16.875-14.18 16.875-7.827 0-14.18-7.56-14.18-16.875 0-9.315 6.353-16.875 14.18-16.875Z"/><path d="M77.988 163.125c0-24.851-16.93-45-37.813-45v5.625-5.625c-20.882 0-37.812 20.149-37.812 45v8.072c0 2.334.78 4.573 2.165 6.227C5.918 179.072 7.798 180 9.76 180h60.83c1.962 0 3.843-.928 5.233-2.576 1.385-1.654 2.165-3.893 2.165-6.227v-8.072Zm-9.453 5.625v-5.625c0-18.641-12.696-33.75-28.36-33.75v-5.625 5.625c-15.663 0-28.359 15.109-28.359 33.75v5.625h56.719ZM148.886 90c0-24.851-16.93-45-37.813-45v5.625V45c-20.882 0-37.812 20.149-37.812 45v8.072c0 2.334.78 4.573 2.165 6.227 1.39 1.648 3.27 2.576 5.232 2.576h60.83c1.962 0 3.843-.928 5.233-2.576 1.385-1.654 2.165-3.893 2.165-6.227V90Zm-9.453 5.625V90c0-18.641-12.696-33.75-28.36-33.75v-5.625 5.625C95.41 56.25 82.714 71.359 82.714 90v5.625h56.719Z"/></g></g></svg>