<svg xmlns="http://www.w3.org/2000/svg" width="100" height="100" viewBox="0 0 100 100"><path d="M79.535 27.4c-.32-1.201-.971-2.48-1.452-3.6C72.324 9.96 59.741 5 49.581 5 35.98 5 21 14.12 19 32.919v3.841c0 .16.055 1.6.134 2.32 1.121 8.959 8.19 18.48 13.47 27.439 5.68 9.599 11.574 19.041 17.415 28.479 3.6-6.159 7.188-12.399 10.707-18.399.959-1.761 2.071-3.521 3.031-5.201.64-1.119 1.862-2.238 2.421-3.279C71.857 57.722 81 47.24 81 36.92v-4.24c0-1.119-1.387-5.039-1.465-5.28M49.83 46.68c-3.998 0-8.374-1.999-10.534-7.52-.322-.879-.296-2.64-.296-2.801v-2.48c0-7.038 5.976-10.239 11.175-10.239 6.4 0 11.351 5.121 11.351 11.521S56.23 46.68 49.83 46.68"/></svg>